<?xml version="1.0" encoding="utf-8"?>
<!-- Svg Vector Icons : http://www.onlinewebfonts.com/icon -->
<!DOCTYPE svg PUBLIC "-//W3C//DTD SVG 1.1//EN" "http://www.w3.org/Graphics/SVG/1.1/DTD/svg11.dtd">
<svg version="1.1" xmlns="http://www.w3.org/2000/svg" xmlns:xlink="http://www.w3.org/1999/xlink" x="0px" y="0px" viewBox="0 0 1000 1000" enable-background="new 0 0 1000 1000" xml:space="preserve">
<metadata> Svg Vector Icons : http://www.onlinewebfonts.com/icon </metadata>
<g><path d="M124.8,119.8h750.3l-51.1-56.1H170.7L124.8,119.8z M500,364.8L201.4,663.4h188.9v109.8h219.5V663.4h188.9L500,364.8z M964.5,130c17,20.4,25.5,44.3,25.5,71.5v678.9c0,28.9-11.1,54.4-33.2,76.5C934.7,979,909.2,990,880.3,990H119.8c-30.6,0-56.6-11.1-77.9-33.2C20.6,934.8,10,909.3,10,880.3V201.5c0-27.2,8.5-51.1,25.5-71.5l74-89.3c17-20.4,38.3-30.7,63.8-30.7h653.3c25.5,0,46.8,10.2,63.8,30.7L964.5,130z"/></g>
</svg>